<?xml version="1.0" encoding="utf-8"?>
<!-- Generator: Adobe Illustrator 18.1.0, SVG Export Plug-In . SVG Version: 6.00 Build 0)  -->
<!DOCTYPE svg PUBLIC "-//W3C//DTD SVG 1.1//EN" "http://www.w3.org/Graphics/SVG/1.1/DTD/svg11.dtd">
<svg version="1.1" id="Layer_1" xmlns="http://www.w3.org/2000/svg" xmlns:xlink="http://www.w3.org/1999/xlink" x="0px" y="0px"
	 viewBox="-387 821 792 792" enable-background="new -387 821 792 792" xml:space="preserve">
<path d="M-189,1068.5h-49.5V1019h49.5V1068.5z M-189,969.5h-49.5V920h49.5V969.5z M-288,870.5H9V821h-346.5
	c-24.8,0-49.5,24.8-49.5,49.5v594c0,24.8,24.8,49.5,49.5,49.5h99v99l74.2-74.2L-90,1613v-99h247.5c24.8,0,49.5-24.8,49.5-49.5V1316
	h-495V870.5z M157.5,1365.5v99H-90V1415h-148.5v49.5h-99v-99H157.5z M-238.5,1217h49.5v49.5h-49.5V1217z M-189,1167.5h-49.5V1118
	h49.5V1167.5z M405,1068.5V1019l-59.4-19.8l-14.8-34.7l29.7-59.4l-34.7-34.7l-59.4,29.7l-34.7-14.8l-19.8-59.4h-49.5l-19.8,59.4
	L108,900.2l-59.4-29.7l-34.7,34.7l29.7,59.4l-14.8,34.7l-59.4,19.8v49.5l59.4,19.8l14.8,34.7l-29.7,59.4l34.7,34.7l59.4-29.7
	l34.7,14.8l19.8,59.4h49.5l19.8-59.4l34.7-14.8l59.4,29.7l34.7-34.7l-29.7-59.4l14.8-34.7L405,1068.5L405,1068.5z M182.2,1137.8
	c-54.5,0-94-44.6-94-94.1s44.5-94.1,94-94.1s94,44.6,94,94.1S236.7,1137.8,182.2,1137.8z"/>
</svg>
