<svg role="img" aria-label="Reparo" class="logo" version="1.1" id="Layer_1" xmlns="http://www.w3.org/2000/svg" xmlns:xlink="http://www.w3.org/1999/xlink" x="0px" y="0px"
	 viewBox="-387 1246.3 3984.2 879.4" enable-background="new -387 1246.3 3984.2 879.4" xml:space="preserve">
<path class="logo--repo" d="M-189,1500.5h-49.5V1451h49.5V1500.5z M-189,1401.5h-49.5V1352h49.5V1401.5z M-288,1302.5H9V1253h-346.5
	c-24.8,0-49.5,24.8-49.5,49.5v594c0,24.8,24.8,49.5,49.5,49.5h99v99l74.2-74.2L-90,2045v-99h247.5c24.8,0,49.5-24.8,49.5-49.5V1748
	h-495V1302.5z M157.5,1797.5v99H-90V1847h-148.5v49.5h-99v-99H157.5z M-238.5,1649h49.5v49.5h-49.5V1649z M-189,1599.5h-49.5V1550
	h49.5V1599.5z"/>
<path class="logo--gear" d="M405,1500.5V1451l-59.4-19.8l-14.8-34.7l29.7-59.4l-34.7-34.7l-59.4,29.7l-34.7-14.8l-19.8-59.4h-49.5l-19.8,59.4
	l-34.6,14.9l-59.4-29.7l-34.7,34.7l29.7,59.4l-14.8,34.7l-59.4,19.8v49.5l59.4,19.8l14.8,34.7l-29.7,59.4l34.7,34.7l59.4-29.7
	l34.7,14.8l19.8,59.4H212l19.8-59.4l34.7-14.8l59.4,29.7l34.7-34.7l-29.7-59.4l14.8-34.7L405,1500.5z M182.2,1569.8
	c-54.5,0-94-44.6-94-94.1s44.5-94.1,94-94.1s94,44.6,94,94.1S236.7,1569.8,182.2,1569.8z"/>
<g>
	<path fill="none" d="M1152.6,1538.6c-40.5,0-74.5,22.4-85.2,80.9H1225C1225,1574.8,1208,1538.6,1152.6,1538.6z"/>
	<path fill="none" d="M458.5,1523.7v44.7h66c72.4,0,110.7-31.9,110.7-91.6c0-59.6-38.3-78.8-110.7-78.8h-66v29.8
		c3.1,15.5,4.7,31.5,4.7,47.9C463.1,1492.2,461.5,1508.2,458.5,1523.7z"/>
	<g class="logo--name">
		<path fill="none" d="M1140.6,1531.6c-40.5,0-74.5,22.4-85.2,80.9H1213C1213,1567.8,1196,1531.6,1140.6,1531.6z"/>
		<path fill="none" d="M2233,1772.2c0,24.5,17,38.3,49,38.3c29.8,0,46.8-14.9,66-36.2V1702C2260.6,1714.7,2233,1742.4,2233,1772.2z"
			/>
		<path fill="none" d="M1724.1,1542.3c-27.7,0-49,10.6-72.4,38.3v195.9c21.3,19.2,44.7,25.6,68.1,25.6c42.6,0,78.8-34.1,78.8-136.3
			C1798.6,1578.5,1773,1542.3,1724.1,1542.3z"/>
		<path fill="none" d="M463.1,1475.8c0,16.4-1.6,32.4-4.7,47.9c-2.6,13-6.1,25.6-10.7,37.7h64.7c72.4,0,110.7-31.9,110.7-91.6
			c0-59.6-38.3-78.8-110.7-78.8h-64.4c4.4,11.9,7.8,24.2,10.3,36.8C461.5,1443.4,463.1,1459.4,463.1,1475.8z"/>
		<path fill="none" d="M3323.2,1540.1c-55.4,0-76.7,51.1-76.7,132c0,80.9,21.3,132,76.7,132c55.4,0,76.7-51.1,76.7-132
			C3399.9,1591.2,3378.6,1540.1,3323.2,1540.1z"/>
		<path d="M802.1,1469.9c0-172.5-127.8-223.6-276.8-223.6H310c8.5,4,16.8,8.5,24.8,13.5c52,28.4,92.7,75,113.3,131.3h64.4
			c72.4,0,110.7,19.2,110.7,78.8c0,59.6-38.3,91.6-110.7,91.6h-64.7c-28.2,75.9-92.7,134-172.5,153.4c-4,1-8,1.8-12,2.6v220.9h183.1
			v-232.1h70.3L636,1938.3h204.4L690.3,1670C757.3,1633.8,802.1,1568.9,802.1,1469.9z"/>
		<path d="M1136.4,1393.2c-129.9,0-255.5,106.5-255.5,278.9c0,176.7,119.2,278.9,274.7,278.9c59.6,0,136.3-21.3,193.8-61.8
			l-59.6-108.6c-38.3,21.3-72.4,31.9-108.6,31.9c-59.6,0-106.5-21.3-123.5-89.4H1361c3.2-12.8,7.5-40.5,7.5-72.4
			C1368.5,1508.2,1293.9,1393.2,1136.4,1393.2z M1055.5,1612.5c10.6-58.6,44.7-80.9,85.2-80.9c55.4,0,72.4,36.2,72.4,80.9H1055.5z"
			/>
		<path d="M1779.4,1393.2c-53.2,0-105.4,25.6-144.8,61.8h-4.3l-12.8-49h-149.1v719.7h183.1v-146.9l-6.4-80.9
			c34.1,34.1,74.5,53.2,119.2,53.2c112.9,0,221.5-104.3,221.5-287.5C1986,1499.7,1905.1,1393.2,1779.4,1393.2z M1719.8,1802
			c-23.4,0-46.8-6.4-68.1-25.6v-195.9c23.4-27.7,44.7-38.3,72.4-38.3c49,0,74.5,36.2,74.5,123.5
			C1798.6,1768,1762.4,1802,1719.8,1802z"/>
		<path d="M2309.6,1393.2c-83,0-159.7,25.6-234.2,70.3l63.9,119.2c55.4-29.8,95.8-44.7,134.1-44.7c46.8,0,70.3,17,74.5,55.4
			c-204.4,21.3-289.6,83-289.6,193.8c0,87.3,59.6,164,159.7,164c57.5,0,104.3-25.6,146.9-63.9h4.3l12.8,51.1h149.1v-296
			C2531.1,1467.7,2448,1393.2,2309.6,1393.2z M2348,1774.4c-19.2,21.3-36.2,36.2-66,36.2c-31.9,0-49-13.8-49-38.3
			c0-29.8,27.7-57.5,115-70.3V1774.4z"/>
		<path d="M2818.5,1497.5h-4.3l-12.8-91.6h-149.1v532.3h183.1v-296c25.6-66,72.4-89.4,110.7-89.4c23.4,0,40.5,4.3,59.6,8.5
			l29.8-157.6c-14.9-6.4-33-10.6-66-10.6C2917.6,1393.2,2857.9,1425.1,2818.5,1497.5z"/>
		<path d="M3323.2,1393.2c-136.3,0-264,102.2-264,278.9s127.8,278.9,264,278.9s264-102.2,264-278.9S3459.5,1393.2,3323.2,1393.2z
			 M3323.2,1804.2c-55.4,0-76.7-51.1-76.7-132c0-80.9,21.3-132,76.7-132c55.4,0,76.7,51.1,76.7,132
			C3399.9,1753.1,3378.6,1804.2,3323.2,1804.2z"/>
	</g>
</g>
</svg>
