<?xml version="1.0" encoding="utf-8"?>
<!-- Generator: Adobe Illustrator 18.1.0, SVG Export Plug-In . SVG Version: 6.00 Build 0)  -->
<!DOCTYPE svg PUBLIC "-//W3C//DTD SVG 1.1//EN" "http://www.w3.org/Graphics/SVG/1.1/DTD/svg11.dtd">
<svg version="1.1" id="Layer_1" xmlns="http://www.w3.org/2000/svg" xmlns:xlink="http://www.w3.org/1999/xlink" x="0px" y="0px"
	 viewBox="121.2 811.5 244 244" enable-background="new 121.2 811.5 244 244" xml:space="preserve">
<g>
	<path fill="#008571" d="M160.5,903.9h-9.8v-9.8h9.8V903.9z M160.5,884.3h-9.8v-9.8h9.8V884.3z M140.9,864.6h59v-9.8H131
		c-4.9,0-9.8,4.9-9.8,9.8v118.1c0,4.9,4.9,9.8,9.8,9.8h19.7v19.7l14.7-14.7l14.8,14.7v-19.7h49.2c4.9,0,9.8-4.9,9.8-9.8v-29.5h-98.4
		V864.6z M229.4,963v19.7h-49.2v-9.8h-29.5v9.8H131V963H229.4z M150.7,933.5h9.8v9.8h-9.8V933.5z M160.5,923.6h-9.8v-9.8h9.8V923.6z
		"/>
	<path fill="#6D7777" d="M278.6,903.9v-9.8l-11.8-3.9l-2.9-6.9l5.9-11.8l-6.9-6.9l-11.8,5.9l-6.9-2.9l-3.9-11.8h-9.8l-3.9,11.8
		l-6.9,3l-11.8-5.9l-6.9,6.9l5.9,11.8l-2.9,6.9l-11.8,3.9v9.8l11.8,3.9l2.9,6.9l-5.9,11.8l6.9,6.9l11.8-5.9l6.9,2.9l3.9,11.8h9.8
		l3.9-11.8l6.9-2.9l11.8,5.9l6.9-6.9l-5.9-11.8l2.9-6.9L278.6,903.9z M234.3,917.7c-10.8,0-18.7-8.9-18.7-18.7
		c0-9.8,8.8-18.7,18.7-18.7c9.8,0,18.7,8.9,18.7,18.7C253,908.8,245.2,917.7,234.3,917.7z"/>
	<g>
		<path fill="none" d="M289.3,908.5v8.9h13.1c14.4,0,22-6.3,22-18.2c0-11.8-7.6-15.7-22-15.7h-13.1v5.9c0.6,3.1,0.9,6.3,0.9,9.5
			C290.2,902.3,289.8,905.5,289.3,908.5z"/>
		<g>
			<path fill="none" d="M290.2,899c0,3.3-0.3,6.4-0.9,9.5c-0.5,2.6-1.2,5.1-2.1,7.5H300c14.4,0,22-6.3,22-18.2
				c0-11.8-7.6-15.7-22-15.7h-12.8c0.9,2.4,1.6,4.8,2,7.3C289.8,892.6,290.2,895.8,290.2,899z"/>
			<path fill="#3C4646" d="M357.6,897.8c0-34.3-25.4-44.4-55-44.4h-42.8c1.7,0.8,3.3,1.7,4.9,2.7c10.3,5.6,18.4,14.9,22.5,26.1H300
				c14.4,0,22,3.8,22,15.7s-7.6,18.2-22,18.2h-12.9c-5.6,15.1-18.4,26.6-34.3,30.5c-0.8,0.2-1.6,0.4-2.4,0.5V991h36.4v-46.1h14
				l23.7,46.1h40.6l-29.8-53.3C348.6,930.4,357.6,917.5,357.6,897.8z"/>
		</g>
	</g>
</g>
</svg>
